@startuml
exception Exception #fac79b {
}

exception InvalidTTMoveException #DarkSalmon {
}

exception InvalidGameException #DarkSalmon {
}


InvalidTTMoveException --> Exception
InvalidGameException --> Exception

skinparam classAttributeIconSize 0
class Parser #LightBlue {
  --
  +ifQuit(input): boolean
  +ifTestQuit(input): boolean
  +ifHelp(input): boolean
  +ifTutorial(input): boolean
  +ifShowGuide(input): boolean
  +ifShowStats(input): boolean
  +readGame(input)
  +readTTMove(input)
  +parseGuess(input)
  +repeatGuess(allGuessedLetters, input)
  +checkCorrectGuess(currentGuess)
  +validHMCategory(category)
  +readLine(): String
}

class java.io.BufferedReader #d9effa {
}

Parser --> BufferedReader: 1
Parser --> InvalidTTMoveException: <<throws>>
Parser --> InvalidGameException: <<throws>>

BufferedReader -right[hidden]- Parser
InvalidGameException -right[hidden]- InvalidTTMoveException

hide Parser circle
hide InvalidGameException circle
hide BufferedReader circle
hide Exception circle
@enduml
